<?xml version="1.0" encoding="UTF-8"?>
<svg width="700pt" height="700pt" version="1.1" viewBox="0 0 700 700" xmlns="http://www.w3.org/2000/svg" xmlns:xlink="http://www.w3.org/1999/xlink">
 <g>
  <path d="m566.43 144.28c-3.0938 0-5.5977 2.5078-5.5977 5.6016v120.42l-208.94-120.63c-1.7305-1-3.8672-1-5.6016 0-1.7305 1-2.7969 2.8516-2.7969 4.8516v116.82l-210.75-121.68c-1.7344-1-3.8672-1-5.6016 0-1.7305 1-2.8008 2.8516-2.7969 4.8516v250.96c0 2 1.0664 3.8477 2.7969 4.8477 1.7344 1.0039 3.8672 1.0039 5.6016 0.003906l210.75-121.68v116.82c0 2 1.0664 3.8477 2.8008 4.8477 1.7305 1.0039 3.8633 1.0039 5.5977 0.003906l208.94-120.63v115.78l0.003907-0.003906c0 3.0938 2.5039 5.6016 5.5977 5.6016s5.6016-2.5078 5.6016-5.6016v-255.6c0-3.0938-2.5078-5.6016-5.6016-5.6016z"/>
 </g>
</svg>
