<?xml version="1.0" encoding="UTF-8"?>
<svg width="700pt" height="700pt" version="1.1" viewBox="0 0 700 700" xmlns="http://www.w3.org/2000/svg" xmlns:xlink="http://www.w3.org/1999/xlink">
 <g>
  <path d="m324.79 406.42h-72.195c-3.0938 0-5.6016-2.5039-5.6016-5.5977v-255.6c0-3.0938 2.5078-5.6016 5.6016-5.6016h72.195c1.4883 0 2.9102 0.58984 3.9609 1.6406 1.0508 1.0508 1.6406 2.4766 1.6406 3.9609v255.6c0 1.4844-0.58984 2.9102-1.6406 3.9609-1.0508 1.0469-2.4727 1.6367-3.9609 1.6367z"/>
  <path d="m447.4 406.42h-72.195c-3.0938 0-5.6016-2.5039-5.6016-5.5977v-255.6c0-3.0938 2.5078-5.6016 5.6016-5.6016h72.195c1.4883 0 2.9102 0.58984 3.9609 1.6406s1.6406 2.4766 1.6406 3.9609v255.6c0 1.4844-0.58984 2.9102-1.6406 3.9609-1.0508 1.0469-2.4727 1.6367-3.9609 1.6367z"/>
 </g>
</svg>
