<?xml version="1.0" encoding="UTF-8"?>
<svg width="700pt" height="700pt" version="1.1" viewBox="0 0 700 700" xmlns="http://www.w3.org/2000/svg" xmlns:xlink="http://www.w3.org/1999/xlink">
 <g>
  <path d="m585.53 149.67c-1.7344-1-3.8711-1-5.6016 0l-210.75 121.68v-116.82c0-2-1.0664-3.8516-2.8008-4.8516-1.7305-1-3.8672-1-5.5977 0l-208.94 120.63v-120.42c0-3.0938-2.5078-5.6016-5.5977-5.6016-3.0938 0-5.6016 2.5078-5.6016 5.6016v255.6c0 3.0938 2.5078 5.6016 5.6016 5.6016 3.0898 0 5.5977-2.5078 5.5977-5.6016v-115.78l208.94 120.63 0.003906 0.003906c1.7305 1 3.8672 1 5.5977 0 1.7344-1 2.8008-2.8516 2.8008-4.8516v-116.82l210.75 121.68c1.7344 1 3.8672 1 5.6016 0 1.7305-1 2.7969-2.8516 2.7969-4.8516v-250.96c0-2-1.0664-3.8516-2.7969-4.8516z"/>
 </g>
</svg>
